<svg width="31" height="20" viewBox="0 0 31 20" fill="none" xmlns="http://www.w3.org/2000/svg">
<path d="M0.676556 4.21753C0.469571 4.21753 0.391951 4.26928 0.366078 4.29515C0.366078 4.29515 0.314331 4.32102 0.314331 4.42451C0.314331 5.38182 2.53943 7.63279 3.23801 7.63279H10.6895L12.2936 4.21753H0.676556Z" fill="white"/>
<path d="M3.41917 8.2793C3.21219 8.2793 3.13457 8.33104 3.10869 8.35692C3.10869 8.35692 3.05695 8.38279 3.05695 8.48628C3.05695 9.44359 5.28204 11.6946 6.00649 11.6946H8.8008L10.4049 8.2793H3.41917Z" fill="white"/>
<path d="M6.39442 12.3416C6.26505 12.3416 6.08394 12.3674 6.03219 12.4709C5.9287 12.8331 6.52378 13.8422 7.3776 14.696L8.46428 12.3674H6.39442V12.3416Z" fill="white"/>
<path d="M28.0505 7.63279C28.775 7.63279 31 5.38182 31 4.42451C31 4.32102 30.9742 4.29515 30.9483 4.29515C30.9224 4.26928 30.8448 4.21753 30.6378 4.21753H18.9949L20.5214 7.63279H28.0505Z" fill="white"/>
<path d="M25.3077 11.6946C26.0321 11.6946 28.2313 9.44359 28.2313 8.48628C28.2313 8.38279 28.2055 8.35692 28.1796 8.35692C28.1537 8.33104 28.0761 8.2793 27.8691 8.2793H20.8316L22.3581 11.6946H25.3077Z" fill="white"/>
<path d="M25.2301 12.4709C25.2043 12.3674 24.9973 12.3416 24.8679 12.3416H22.6428L23.7554 14.7995C24.6868 13.9457 25.3595 12.8331 25.2301 12.4709Z" fill="white"/>
<path d="M15.683 0L6.36859 20H10.1461L12.0866 15.7568H18.9947L20.8317 20H24.661L15.683 0ZM15.6053 7.96895L17.5458 12.4191H13.5872L15.6053 7.96895Z" fill="white"/>
</svg>
