<svg width="24" height="25" viewBox="0 0 24 25" fill="none" xmlns="http://www.w3.org/2000/svg">
<path fill-rule="evenodd" clip-rule="evenodd" d="M12.315 2.5C14.745 2.5 15.099 2.513 16.123 2.56C17.187 2.609 17.914 2.778 18.55 3.025C19.2175 3.27587 19.8222 3.66936 20.322 4.178C20.8306 4.67777 21.2241 5.2825 21.475 5.95C21.722 6.586 21.891 7.313 21.94 8.377C21.988 9.444 22 9.784 22 12.5V12.58C22 15.223 21.988 15.567 21.94 16.623C21.891 17.687 21.722 18.414 21.475 19.05C21.2241 19.7175 20.8306 20.3222 20.322 20.822C19.8222 21.3306 19.2175 21.7241 18.55 21.975C17.914 22.222 17.187 22.391 16.123 22.44C15.056 22.488 14.716 22.5 12 22.5H11.92C9.277 22.5 8.933 22.488 7.877 22.44C6.813 22.391 6.086 22.222 5.45 21.975C4.7825 21.7241 4.17777 21.3306 3.678 20.822C3.16936 20.3222 2.77587 19.7175 2.525 19.05C2.278 18.414 2.109 17.687 2.06 16.623C2.013 15.599 2 15.244 2 12.815V12.185C2 9.755 2.013 9.401 2.06 8.377C2.109 7.313 2.278 6.586 2.525 5.95C2.77587 5.2825 3.16936 4.67777 3.678 4.178C4.17777 3.66936 4.7825 3.27587 5.45 3.025C6.086 2.778 6.813 2.609 7.877 2.56C8.901 2.513 9.256 2.5 11.685 2.5H12.315ZM12.234 4.302H11.766C9.31 4.302 8.982 4.313 7.959 4.36C6.984 4.405 6.455 4.567 6.102 4.704C5.635 4.886 5.302 5.102 4.952 5.452C4.602 5.802 4.386 6.135 4.204 6.602C4.067 6.955 3.904 7.484 3.86 8.459C3.813 9.482 3.802 9.81 3.802 12.266V12.734C3.802 15.19 3.813 15.518 3.86 16.541C3.905 17.516 4.067 18.045 4.204 18.398C4.386 18.864 4.603 19.198 4.952 19.548C5.302 19.898 5.635 20.114 6.102 20.296C6.455 20.433 6.984 20.596 7.959 20.64C9.013 20.688 9.329 20.698 12 20.698H12.08C14.677 20.698 14.997 20.688 16.04 20.64C17.016 20.595 17.545 20.433 17.898 20.296C18.364 20.114 18.698 19.898 19.048 19.548C19.398 19.198 19.614 18.865 19.796 18.398C19.933 18.045 20.096 17.516 20.14 16.541C20.188 15.486 20.198 15.171 20.198 12.5V12.42C20.198 9.823 20.188 9.503 20.14 8.46C20.095 7.484 19.933 6.955 19.796 6.602C19.6358 6.16757 19.3802 5.7746 19.048 5.452C18.7254 5.11986 18.3324 4.86426 17.898 4.704C17.545 4.567 17.016 4.404 16.041 4.36C15.018 4.313 14.69 4.302 12.234 4.302ZM12 7.365C12.6743 7.365 13.3421 7.49782 13.9651 7.75588C14.5881 8.01394 15.1542 8.39218 15.631 8.86901C16.1078 9.34584 16.4861 9.91191 16.7441 10.5349C17.0022 11.1579 17.135 11.8257 17.135 12.5C17.135 13.1743 17.0022 13.8421 16.7441 14.4651C16.4861 15.0881 16.1078 15.6542 15.631 16.131C15.1542 16.6078 14.5881 16.9861 13.9651 17.2441C13.3421 17.5022 12.6743 17.635 12 17.635C10.6381 17.635 9.33201 17.094 8.36901 16.131C7.40601 15.168 6.865 13.8619 6.865 12.5C6.865 11.1381 7.40601 9.83201 8.36901 8.86901C9.33201 7.90601 10.6381 7.365 12 7.365ZM12 9.167C11.116 9.167 10.2683 9.51815 9.64321 10.1432C9.01815 10.7683 8.667 11.616 8.667 12.5C8.667 13.384 9.01815 14.2317 9.64321 14.8568C10.2683 15.4818 11.116 15.833 12 15.833C12.884 15.833 13.7317 15.4818 14.3568 14.8568C14.9818 14.2317 15.333 13.384 15.333 12.5C15.333 11.616 14.9818 10.7683 14.3568 10.1432C13.7317 9.51815 12.884 9.167 12 9.167ZM17.338 5.962C17.6563 5.962 17.9615 6.08843 18.1865 6.31347C18.4116 6.53852 18.538 6.84374 18.538 7.162C18.538 7.48026 18.4116 7.78548 18.1865 8.01053C17.9615 8.23557 17.6563 8.362 17.338 8.362C17.0197 8.362 16.7145 8.23557 16.4895 8.01053C16.2644 7.78548 16.138 7.48026 16.138 7.162C16.138 6.84374 16.2644 6.53852 16.4895 6.31347C16.7145 6.08843 17.0197 5.962 17.338 5.962Z" fill="#1A1A1A"/>
</svg>
