<svg width="24" height="25" viewBox="0 0 24 25" fill="none" xmlns="http://www.w3.org/2000/svg">
<path d="M8.29 20.7534C15.837 20.7534 19.965 14.5004 19.965 9.0784C19.965 8.9004 19.965 8.7234 19.953 8.5484C20.7562 7.96693 21.4493 7.24701 22 6.4224C21.2511 6.7544 20.4566 6.97216 19.643 7.0684C20.4996 6.55546 21.1408 5.74875 21.447 4.7984C20.6417 5.27628 19.7607 5.61313 18.842 5.7944C18.2234 5.13616 17.405 4.70023 16.5136 4.5541C15.6222 4.40797 14.7075 4.5598 13.9111 4.98607C13.1147 5.41234 12.4811 6.08927 12.1083 6.91206C11.7355 7.73485 11.6444 8.65758 11.849 9.5374C10.2176 9.45564 8.6216 9.03172 7.16465 8.29317C5.70769 7.55461 4.42233 6.51792 3.392 5.2504C2.86732 6.1536 2.70659 7.22282 2.94254 8.24036C3.17848 9.25791 3.79337 10.1473 4.662 10.7274C4.00926 10.7085 3.37063 10.5329 2.8 10.2154V10.2674C2.80039 11.2147 3.1284 12.1327 3.7284 12.8658C4.3284 13.5988 5.16347 14.1018 6.092 14.2894C5.48781 14.4541 4.85389 14.4781 4.239 14.3594C4.50116 15.1749 5.01168 15.888 5.69913 16.399C6.38658 16.91 7.21657 17.1934 8.073 17.2094C7.22212 17.878 6.24779 18.3722 5.20573 18.6639C4.16367 18.9556 3.07432 19.039 2 18.9094C3.8766 20.1137 6.06019 20.7525 8.29 20.7494" fill="white"/>
</svg>
