<svg width="20" height="21" viewBox="0 0 20 21" fill="none" xmlns="http://www.w3.org/2000/svg">
<path fill-rule="evenodd" clip-rule="evenodd" d="M16.338 16.838H13.67V12.66C13.67 11.665 13.653 10.383 12.283 10.383C10.893 10.383 10.682 11.469 10.682 12.59V16.838H8.014V8.248H10.573V9.422H10.61C10.966 8.747 11.837 8.035 13.136 8.035C15.839 8.035 16.339 9.813 16.339 12.127V16.838H16.338ZM5.005 7.075C4.80171 7.0752 4.60038 7.03535 4.41249 6.95774C4.2246 6.88013 4.05384 6.76627 3.90996 6.62266C3.76607 6.47906 3.65188 6.30852 3.57391 6.12078C3.49593 5.93304 3.4557 5.73179 3.4555 5.5285C3.4553 5.32521 3.49515 5.12388 3.57276 4.93599C3.65037 4.7481 3.76423 4.57734 3.90784 4.43346C4.05144 4.28957 4.22198 4.17538 4.40972 4.09741C4.59746 4.01943 4.79871 3.9792 5.002 3.979C5.41255 3.9786 5.80645 4.14131 6.09704 4.43134C6.38763 4.72136 6.5511 5.11494 6.5515 5.5255C6.5519 5.93605 6.38919 6.32995 6.09916 6.62054C5.80914 6.91113 5.41556 7.0746 5.005 7.075ZM3.668 16.838H6.34V8.248H3.667V16.838H3.668ZM17.668 1.5H2.328C1.595 1.5 1 2.081 1 2.798V18.201C1 18.918 1.595 19.5 2.328 19.5H17.668C18.402 19.5 19 18.918 19 18.201V2.798C19 2.081 18.402 1.5 17.668 1.5Z" fill="#1A1A1A"/>
</svg>
