<svg width="165" height="23" viewBox="0 0 165 23" fill="none" xmlns="http://www.w3.org/2000/svg">
<g clip-path="url(#clip0_37_306)">
<g clip-path="url(#clip1_37_306)">
<path d="M16.4315 2.24108V5.66122C16.4315 5.82485 16.2965 6.06829 16.0543 6.06829H11.111V21.2654C11.111 21.5088 10.9204 21.7004 10.706 21.7004H6.8982C6.70761 21.7004 6.54879 21.5088 6.54879 21.2654V6.06829H1.58161C1.33941 6.06829 1.20441 5.82485 1.20441 5.66122V2.24108C1.20441 2.07746 1.33941 1.83401 1.58161 1.83401H16.0543C16.2965 1.83401 16.4315 2.07746 16.4315 2.24108Z" fill="#7A133E"/>
<path d="M20.6443 15.5106V15.9456C20.6443 17.3584 21.3471 18.4439 23.1815 18.4439C24.9643 18.4439 25.4209 17.7654 25.9093 16.9234C26.1515 16.4884 26.2587 16.4085 26.7193 16.6241L29.0698 17.8173C29.5026 18.0328 29.5304 18.2802 29.3398 18.6873C28.3948 20.8304 26.0204 22.0237 23.1299 22.0237C18.7305 22.0237 16.4355 19.3897 16.4355 15.8379V12.5015C16.4355 9.05345 18.5677 6.31573 23.1299 6.31573C27.4221 6.31573 29.5026 9.05744 29.5026 12.3938V14.8362C29.5026 15.2432 29.3676 15.5146 28.7998 15.5146H20.6443V15.5106ZM20.6443 12.282V12.6612H25.4765V12.282C25.4765 10.981 24.7459 9.86758 23.0743 9.86758C21.3709 9.86758 20.6443 10.981 20.6443 12.282Z" fill="#7A133E"/>
<path d="M31.5793 16.1611V12.306C31.5793 8.83393 33.6043 6.36361 36.6259 6.36361C38.7303 6.36361 40.1637 7.47705 40.7037 8.42687V1.34713C40.7037 1.13162 40.8387 0.940063 41.1087 0.940063H44.7258C44.9958 0.940063 45.1308 1.13162 45.1308 1.34713V21.2893C45.1308 21.5048 44.9958 21.6964 44.7258 21.6964H41.2714C41.0014 21.6964 40.8664 21.5048 40.8664 21.2893V19.9883C40.2987 20.9102 38.8137 22.0236 36.8165 22.0236C33.6043 22.0236 31.5793 19.6611 31.5793 16.1611ZM40.7037 15.4827V13.0123C40.7037 11.3043 39.7031 10.2427 38.3015 10.2427C36.6815 10.2427 36.0065 11.3561 36.0065 13.0123V15.4827C36.0065 17.1389 36.6815 18.1406 38.3015 18.1406C39.7031 18.1445 40.7037 17.1668 40.7037 15.4827Z" fill="#7A133E"/>
<path d="M75.0172 2.43264V21.2654C75.0172 21.5368 74.8822 21.7004 74.5845 21.7004H71.3167C71.0467 21.7004 70.8839 21.5368 70.8839 21.2654V12.2541C70.8839 10.5979 71.0467 7.8043 71.1817 6.20398H71.0745L67.6201 21.1018C67.5407 21.4809 67.3223 21.7004 66.9173 21.7004H63.7845C63.3795 21.7004 63.1651 21.4849 63.0817 21.1018L59.5717 6.23191H59.4645C59.6273 7.8043 59.8139 10.6019 59.8139 12.2541V21.2614C59.8139 21.5328 59.6789 21.6964 59.3811 21.6964H56.1412C55.8712 21.6964 55.7084 21.5328 55.7084 21.2614V2.43264C55.7084 2.05351 55.9228 1.83401 56.304 1.83401H61.5689C61.9739 1.83401 62.1883 2.04952 62.2717 2.43264L64.4317 11.4958C64.9439 13.7746 65.1861 14.9678 65.3767 16.8395H65.4561C65.6467 14.9678 65.8611 13.7467 66.4011 11.4679L68.5333 2.43264C68.6127 2.05351 68.8311 1.83401 69.2361 1.83401H74.4177C74.8028 1.83401 75.0172 2.05351 75.0172 2.43264Z" fill="#7A133E"/>
<path d="M82.7401 1.53469V4.08483C82.7401 4.46396 82.5256 4.68346 82.1445 4.68346H78.9045C78.5273 4.68346 78.3089 4.46795 78.3089 4.08483V1.53469C78.3089 1.15556 78.5233 0.936066 78.9045 0.936066H82.1445C82.5256 0.940057 82.7401 1.15556 82.7401 1.53469ZM82.7401 7.06998V21.2614C82.7401 21.5328 82.5773 21.6964 82.3351 21.6964H78.7457C78.4757 21.6964 78.3129 21.5328 78.3129 21.2614V7.06998C78.3129 6.7986 78.4757 6.63497 78.7457 6.63497H82.3351C82.5812 6.63897 82.7401 6.7986 82.7401 7.06998Z" fill="#7A133E"/>
<path d="M97.9155 11.0888C97.9433 11.3322 97.9155 11.5238 97.5105 11.6315L94.7311 12.3898C94.2189 12.5255 94.1355 12.4177 94.0283 12.0905C93.8377 11.5198 93.7027 10.1908 91.8683 10.1908C90.3555 10.1908 89.7361 11.3043 89.7361 12.8248V15.6184C89.7361 17.1389 90.3555 18.1406 91.8683 18.1406C93.4605 18.1406 93.8139 17.3544 94.1077 16.4046C94.2427 15.9696 94.3777 15.9416 94.7827 16.0773L97.6177 17.083C98.0227 17.2187 98.0227 17.4342 97.9671 17.7335C97.6177 19.9045 95.3743 22.0197 91.5705 22.0197C87.6 22.0197 85.309 19.3857 85.309 15.8339V12.6053C85.309 9.04945 87.6039 6.31174 91.5705 6.31174C95.0805 6.31174 97.5899 8.07569 97.9155 11.0888Z" fill="#7A133E"/>
<path d="M104.018 1.37506V8.73017C104.856 7.50897 106.234 6.3676 108.255 6.3676C111.062 6.3676 112.654 8.51067 112.654 11.6874L112.627 21.2654C112.627 21.6445 112.412 21.7004 112.222 21.7004H108.66C108.39 21.7004 108.227 21.5368 108.227 21.2654L108.199 12.4456C108.199 11.1965 107.632 10.4103 106.5 10.4103C105.341 10.4103 104.419 11.2524 104.014 12.6611V21.2614C104.014 21.5328 103.824 21.6964 103.609 21.6964H100.02C99.75 21.6964 99.5872 21.5328 99.5872 21.2614V1.37506C99.5872 1.10369 99.75 0.940063 100.02 0.940063H103.609C103.856 0.940063 104.018 1.10369 104.018 1.37506Z" fill="#7A133E"/>
<path d="M127.56 11.5756V21.2614C127.56 21.5328 127.397 21.6964 127.155 21.6964H123.887C123.617 21.6964 123.454 21.5328 123.454 21.2614V19.7409C122.565 21.1536 121.159 21.9917 119.404 21.9917C116.625 21.9917 114.786 20.1719 114.786 17.3264C114.786 14.6127 116.462 12.9565 120.754 12.6612C121.564 12.6053 122.402 12.6053 123.264 12.6332V11.6834C123.264 10.3265 122.589 9.8117 121.401 9.8117C120.186 9.8117 119.889 10.3265 119.567 11.0608C119.404 11.412 119.325 11.4679 118.999 11.3881L115.731 10.546C115.434 10.4662 115.406 10.3026 115.462 10.0831C115.866 7.94 117.943 6.31174 121.588 6.31174C125.483 6.31174 127.56 8.1555 127.56 11.5756ZM123.268 16.5163V15.319C122.513 15.2911 121.755 15.319 121.108 15.3989C119.702 15.5625 118.975 15.9975 118.975 17.0271C118.975 18.0049 119.623 18.4918 120.651 18.4918C121.862 18.4958 122.835 17.8173 123.268 16.5163Z" fill="#7A133E"/>
<path d="M134.23 15.5106V15.9456C134.23 17.3584 134.933 18.4439 136.768 18.4439C138.55 18.4439 139.007 17.7654 139.495 16.9234C139.738 16.4884 139.845 16.4085 140.305 16.6241L142.656 17.8173C143.089 18.0328 143.116 18.2802 142.926 18.6873C141.981 20.8304 139.607 22.0237 136.716 22.0237C132.317 22.0237 130.022 19.3897 130.022 15.8379V12.5015C130.022 9.05345 132.154 6.31573 136.716 6.31573C141.008 6.31573 143.089 9.05744 143.089 12.3938V14.8362C143.089 15.2432 142.954 15.5146 142.386 15.5146H134.23V15.5106ZM134.23 12.282V12.6612H139.063V12.282C139.063 10.981 138.332 9.86758 136.66 9.86758C134.957 9.86758 134.23 10.981 134.23 12.282Z" fill="#7A133E"/>
<path d="M149.997 1.34714V21.2654C149.997 21.5368 149.835 21.7004 149.592 21.7004H146.003C145.733 21.7004 145.57 21.5368 145.57 21.2654V1.34714C145.57 1.07576 145.733 0.91214 146.003 0.91214H149.592C149.835 0.91214 149.997 1.07576 149.997 1.34714Z" fill="#7A133E"/>
<path d="M164.657 10.0312C164.736 10.2746 164.629 10.4941 164.331 10.6019L161.603 11.5796C161.306 11.6874 161.143 11.5796 161.036 11.2524C160.686 10.2746 159.821 9.73188 158.606 9.73188C157.446 9.73188 156.771 10.1389 156.771 10.8174C156.771 11.4679 157.256 11.6874 160.118 12.4456C163.438 13.3156 164.843 14.7523 164.843 17.1947C164.843 20.1799 162.441 22.0516 158.661 22.0516C155.259 22.0516 152.856 20.7226 152.102 18.4159C151.995 18.0887 152.102 17.9291 152.507 17.7375L154.881 16.5442C155.231 16.3806 155.421 16.4644 155.584 16.8954C155.961 17.9809 157.041 18.6314 158.498 18.6314C159.904 18.6314 160.631 18.2523 160.631 17.518C160.631 16.8396 159.793 16.4325 157.204 15.754C153.912 14.884 152.535 13.5032 152.535 11.1406C152.535 8.21137 154.885 6.31174 158.475 6.31174C161.58 6.31174 163.819 7.66862 164.657 10.0312Z" fill="#7A133E"/>
</g>
</g>
<defs>
<clipPath id="clip0_37_306">
<rect width="165" height="23" fill="white"/>
</clipPath>
<clipPath id="clip1_37_306">
<rect width="163.796" height="27.8421" fill="white" transform="translate(1.20441 -2.42105)"/>
</clipPath>
</defs>
</svg>
